<?xml version="1.0" encoding="utf-8"?>
<!-- Generator: Adobe Illustrator 21.1.0, SVG Export Plug-In . SVG Version: 6.00 Build 0)  -->
<svg version="1.1" id="Calque_1" xmlns="http://www.w3.org/2000/svg" xmlns:xlink="http://www.w3.org/1999/xlink" x="0px" y="0px"
	 viewBox="0 0 457 559.8" style="enable-background:new 0 0 457 559.8;" xml:space="preserve">
<style type="text/css">
	.st0{fill:#222222;}
	.st1{fill:none;}
	.st2{enable-background:new    ;}
	.st3{fill:#BBBBBB;}
	.st4{fill:none;stroke:#BBBBBB;stroke-width:5;stroke-miterlimit:10;}
</style>
<title>reBorn_mini</title>
<polygon class="st0" points="228.5,141.8 396.9,0 228.5,0 60.1,0 "/>
<polygon class="st0" points="352.8,125.4 228.5,230.1 104.2,125.4 104.2,172.8 114.2,189.5 228.5,378.9 342.7,189.5 352.8,172.8 "/>
<polygon class="st0" points="88.9,92.7 228.5,210.2 368,92.7 368,147.5 457,0 420.6,0 228.5,161.7 36.4,0 0,0 88.9,147.5 "/>
<rect y="421.8" class="st1" width="457" height="133"/>
<g class="st2">
	<path class="st3" d="M52.7,456.6c-6.9,0.3-12.9,2.5-18,6.6c-5.1,4.1-8.6,9.6-10.7,16.6v47.1h-4.9V452h4.8v19c2.6-5.3,6-9.6,10.4-13
		c4.3-3.4,8.9-5.3,13.8-5.9c1,0,1.8,0,2.6-0.1c0.8,0,1.4-0.1,2-0.1V456.6z"/>
	<path class="st3" d="M98.5,528.3c-5.1,0-9.8-1-14.3-3.1c-4.4-2.1-8.3-4.9-11.6-8.5c-3.3-3.6-5.9-7.8-7.8-12.5s-2.8-9.8-2.8-15.2
		c0-5.3,0.9-10.2,2.7-14.8c1.8-4.6,4.4-8.6,7.6-12.1c3.3-3.5,7.1-6.2,11.4-8.2c4.3-2,9-3,14.1-3c5.1,0,9.8,1,14.3,3
		c4.4,2,8.3,4.8,11.5,8.3c3.3,3.5,5.9,7.6,7.8,12.3c1.9,4.7,2.9,9.7,2.9,15c0,0.2,0,0.6-0.1,1.2c0,0.6-0.1,0.9-0.1,1H67.1
		c0.3,4.6,1.3,8.9,3.2,12.9c1.8,4,4.2,7.4,7,10.3c2.8,2.9,6.1,5.2,9.7,6.8c3.6,1.7,7.5,2.5,11.7,2.5c2.8,0,5.5-0.4,8.1-1.1
		c2.6-0.7,5.1-1.8,7.4-3.1c2.3-1.3,4.3-3,6-4.8c1.7-1.9,3.1-3.9,4.2-6.1l4.5,1.2c-1.1,2.6-2.6,5-4.7,7.3c-2.1,2.3-4.4,4.2-7.1,5.8
		c-2.7,1.6-5.6,2.8-8.8,3.7S101.9,528.3,98.5,528.3z M129.5,487.4c-0.3-4.7-1.3-9-3-13c-1.7-3.9-4-7.3-6.8-10.2
		c-2.8-2.9-6.1-5.1-9.7-6.7c-3.6-1.6-7.6-2.4-11.8-2.4c-4.2,0-8.2,0.8-11.8,2.4c-3.6,1.6-6.9,3.9-9.6,6.8c-2.8,2.9-5,6.3-6.7,10.2
		c-1.7,3.9-2.7,8.2-3,12.8H129.5z"/>
</g>
<g class="st2">
	<path class="st0" d="M227.4,500.4c0,3.6-0.7,7.1-2.1,10.3c-1.4,3.2-3.3,6-5.7,8.4c-2.4,2.4-5.2,4.3-8.4,5.7
		c-3.2,1.4-6.6,2.1-10.3,2.1h-47.5V424.6h46.4c3.6,0,6.8,0.8,9.6,2.3c2.9,1.5,5.3,3.5,7.3,6c2,2.4,3.6,5.2,4.7,8.4
		c1.1,3.1,1.7,6.3,1.7,9.4c0,5.2-1.3,9.9-4,14.3c-2.6,4.3-6.2,7.5-10.7,9.5c2.9,0.9,5.5,2.1,7.8,3.8c2.4,1.7,4.4,3.7,6,6
		c1.7,2.3,3,4.8,3.8,7.6C227,494.6,227.4,497.4,227.4,500.4z M158.3,429.3V473h39.6c3,0,5.7-0.6,8.1-1.9c2.4-1.2,4.6-2.9,6.4-5
		c1.8-2.1,3.2-4.4,4.2-7c1-2.6,1.5-5.3,1.5-8.1c0-2.9-0.5-5.6-1.4-8.3c-1-2.6-2.3-5-4-7c-1.7-2-3.8-3.6-6.1-4.8
		c-2.4-1.2-5-1.8-7.8-1.8H158.3z M222.4,500c0-2.9-0.5-5.7-1.5-8.4c-1-2.7-2.4-5.1-4.2-7.2c-1.8-2.1-4-3.7-6.5-5
		c-2.5-1.2-5.2-1.9-8.2-1.9h-43.6v44.8h42.6c3,0,5.8-0.6,8.4-1.9c2.6-1.2,4.9-2.9,6.8-5c1.9-2.1,3.4-4.5,4.5-7.2
		C221.8,505.5,222.4,502.7,222.4,500z"/>
	<path class="st0" d="M277.1,528.3c-5.1,0-9.8-1-14.2-3.1c-4.4-2.1-8.2-4.8-11.4-8.4c-3.3-3.5-5.8-7.6-7.6-12.3
		c-1.8-4.7-2.7-9.6-2.7-14.8c0-5.3,0.9-10.3,2.8-15c1.9-4.7,4.4-8.8,7.7-12.4c3.3-3.6,7.1-6.4,11.4-8.4c4.4-2.1,9-3.1,14-3.1
		c5,0,9.7,1,14.1,3.1c4.4,2.1,8.3,4.9,11.5,8.4c3.3,3.6,5.8,7.7,7.7,12.4c1.9,4.7,2.8,9.7,2.8,15c0,5.2-0.9,10.1-2.8,14.8
		c-1.9,4.7-4.4,8.8-7.7,12.3c-3.3,3.5-7.1,6.3-11.5,8.4C286.8,527.3,282.1,528.3,277.1,528.3z M246,489.9c0,4.6,0.8,9,2.4,13.1
		c1.6,4.1,3.8,7.7,6.6,10.8c2.8,3.1,6.1,5.5,9.9,7.3c3.8,1.8,7.8,2.7,12,2.7c4.2,0,8.2-0.9,12-2.7c3.8-1.8,7.1-4.3,9.9-7.3
		c2.8-3.1,5.1-6.7,6.8-10.9c1.7-4.2,2.5-8.6,2.5-13.2c0-4.6-0.8-9-2.5-13.2c-1.7-4.2-3.9-7.8-6.8-10.9c-2.8-3.1-6.1-5.5-9.9-7.3
		c-3.7-1.8-7.7-2.7-12-2.7c-4.2,0-8.2,0.9-12,2.7c-3.7,1.8-7,4.3-9.9,7.4c-2.8,3.1-5.1,6.8-6.8,10.9
		C246.8,480.7,246,485.2,246,489.9z"/>
	<path class="st0" d="M364.6,456.6c-6.9,0.3-12.9,2.5-18,6.6c-5.1,4.1-8.6,9.6-10.7,16.6v47.1h-4.9V452h4.8v19
		c2.6-5.3,6-9.6,10.4-13c4.3-3.4,8.9-5.3,13.8-5.9c1,0,1.8,0,2.6-0.1c0.8,0,1.4-0.1,2-0.1V456.6z"/>
	<path class="st0" d="M438.5,526.9h-4.9v-41.8c0-10.3-1.4-17.8-4.3-22.5s-7.5-7.1-13.8-7.1c-3.5,0-6.8,0.6-10.2,1.9
		c-3.3,1.2-6.4,3-9.2,5.2c-2.8,2.2-5.3,4.8-7.5,7.8c-2.2,3-3.7,6.2-4.7,9.8v46.8H379V452h4.6v18.7c1.5-3,3.5-5.7,5.8-8.1
		c2.4-2.4,5-4.5,7.8-6.3c2.9-1.7,5.9-3.1,9.1-4c3.2-1,6.5-1.4,9.9-1.4c7.9,0,13.5,2.8,17,8.4c3.5,5.6,5.2,14,5.2,25.3V526.9z"/>
</g>
<line class="st4" x1="20.6" y1="556.8" x2="134.6" y2="556.8"/>
</svg>
