<?xml version="1.0" encoding="utf-8"?>
<!-- Generator: Adobe Illustrator 21.1.0, SVG Export Plug-In . SVG Version: 6.00 Build 0)  -->
<svg version="1.1" id="Calque_1" xmlns="http://www.w3.org/2000/svg" xmlns:xlink="http://www.w3.org/1999/xlink" x="0px" y="0px"
	 viewBox="0 0 457 559.8" style="enable-background:new 0 0 457 559.8;" xml:space="preserve">
<style type="text/css">
	.st0{fill:#222222;}
	.st1{fill:none;}
	.st2{fill:#BBBBBB;}
	.st3{font-family:'Raleway-ExtraLight';}
	.st4{font-size:144px;}
	.st5{fill:none;stroke:#BBBBBB;stroke-width:5;stroke-miterlimit:10;}
</style>
<title>reBorn_mini</title>
<polygon class="st0" points="228.5,141.8 396.9,0 228.5,0 60.1,0 "/>
<polygon class="st0" points="352.8,125.4 228.5,230.1 104.2,125.4 104.2,172.8 114.2,189.5 228.5,378.9 342.7,189.5 352.8,172.8 "/>
<polygon class="st0" points="88.9,92.7 228.5,210.2 368,92.7 368,147.5 457,0 420.6,0 228.5,161.7 36.4,0 0,0 88.9,147.5 "/>
<rect y="421.8" class="st1" width="457" height="133"/>
<text transform="matrix(1 0 0 1 7.6696 526.8892)"><tspan x="0" y="0" class="st2 st3 st4">re</tspan><tspan x="131.6" y="0" class="st0 st3 st4">Born</tspan></text>
<line class="st5" x1="20.6" y1="556.8" x2="134.6" y2="556.8"/>
</svg>
